# xmcd
#
# Track frame offsets: 
#        150
#        33011
#        55575
#        75990
#        93720
#        115658
#        138415
#        163291
#        190007
#        216617
#        256719
#        273518
#        294613
#
# Disc length: 4250 seconds
#
# Revision: 1
# Processed by: cddbd v1.5.2PL0 Copyright (c) Steve Scherf et al.
# Submitted via: ExactAudioCopyFreeDBPlugin 1.0
#
DISCID=b510980d
DTITLE=Phil Collins - No Jacket Required [Deluxe Edition]
DYEAR=1984
DGENRE=Pop
TTITLE0=Sussudio [Live]
TTITLE1=Don't Lose My Number [Live]
TTITLE2=Who Said I Would [Live]
TTITLE3=Long Long Way To Go [Live]
TTITLE4=Only You Know And I Know [Live]
TTITLE5=Easy Lover [Live]
TTITLE6=Inside Out [Live]
TTITLE7=Doesn't Anybody Stay Together Anymore [Live]
TTITLE8=One More Night [Live]
TTITLE9=Take Me Home [Live]
TTITLE10=Only You Know And I Know [Demo]
TTITLE11=One More Night [Demo]
TTITLE12=Take Me Home [Demo]
EXTD=
EXTT0=
EXTT1=
EXTT2=
EXTT3=
EXTT4=
EXTT5=
EXTT6=
EXTT7=
EXTT8=
EXTT9=
EXTT10=
EXTT11=
EXTT12=
PLAYORDER=
